<svg xmlns="http://www.w3.org/2000/svg" width="2000" height="1500" preserveAspectRatio="none"><g mask="url(&quot;#SvgjsMask1008&quot;)" fill="none"><path fill="url(&quot;#SvgjsLinearGradient1009&quot;)" d="M0 0h2000v1500H0z"/><path d="m1795.232 380.808 328.12-51.969L2071.384.719l-328.12 51.969zM1537.25 1640.014c130.22-2.149 240.298-79.333 312.482-187.737 83.008-124.66 156.897-278.541 85.767-410.34-73.384-135.975-244.139-179.83-398.249-168.664-135.277 9.801-243.065 101.656-309.439 219.937-64.742 115.373-86.589 254.545-21.431 369.684 66.036 116.691 196.808 179.332 330.87 177.12" fill="rgba(11, 122, 147, 0.4)" class="triangle-float1"/><path d="m1451.131 424.674-24.114-344.843-344.843 24.114 24.114 344.843zM1609.428 1425.935c101.424.407 193.965-54.484 246.137-141.461 53.787-89.669 64.28-200.618 14.073-292.34-52.161-95.293-151.602-154.904-260.21-157.325-113.02-2.52-227.232 45.875-281.114 145.256-51.915 95.752-19.711 210.309 38.379 302.445 53.721 85.206 142.008 143.02 242.735 143.425M1697.253 465.694l231.635-231.635L1697.253 2.425l-231.635 231.634z" fill="rgba(11, 122, 147, 0.4)" class="triangle-float2"/><path d="M566.973 1351.524c126.37.356 265.687-29.567 324.132-141.611 55.866-107.1-10.413-229.202-78.747-328.811-57.469-83.771-144.223-134.37-245.385-143.673-124.564-11.455-267.891-13.357-338.37 89.988-76.707 112.478-56.456 266.299 17.388 380.677 68.127 105.523 195.378 143.076 320.982 143.43" fill="rgba(11, 122, 147, 0.4)" class="triangle-float1"/><path d="M1080.256-290.55 682.712-145.856l144.694 397.544 397.544-144.694z" fill="rgba(11, 122, 147, 0.4)" class="triangle-float2"/><path d="m739.596 819.184-222.66 35.266 164.229 316.358z" fill="rgba(11, 122, 147, 0.4)" class="triangle-float3"/><path d="M1178.895 1342.175c130.188 4.148 271.199-24.303 338.293-135.948 68.609-114.165 36.489-257.957-33.448-371.314-66.127-107.18-179.194-168.513-304.845-177.003-145.108-9.805-313.272 4.199-385.656 130.346-72.201 125.829-.14 278.482 82.752 397.54 69.588 99.949 181.178 152.5 302.904 156.379" fill="rgba(11, 122, 147, 0.4)" class="triangle-float2"/><path d="m1027.846 1112.21-192.13 332.777 332.778 192.13 192.13-332.778zM-159.82 672.995l256.01 54.417-201.593-310.426zM2041.948 1714.07c148.19.584 269.692-110.181 336.578-242.419 60.514-119.64 45.999-260.463-24.556-374.47-66.75-107.859-185.179-169.081-312.022-169.394-127.424-.315-248.073 59.23-314.703 167.846-69.828 113.829-77.876 254.366-17.312 373.383 66.862 131.394 184.588 244.473 332.015 245.054" fill="rgba(11, 122, 147, 0.4)" class="triangle-float3"/></g><defs><linearGradient x1="6.25%" y1="-8.33%" x2="93.75%" y2="108.33%" gradientUnits="userSpaceOnUse" id="SvgjsLinearGradient1009"><stop stop-color="rgba(2, 0, 36, 1)" offset="0"/><stop stop-color="rgba(8, 99, 117, 1)" offset="1"/></linearGradient><style>@keyframes float1{0%,to{transform:translate(0,0)}50%{transform:translate(-10px,0)}}@keyframes float2{0%,to{transform:translate(0,0)}50%{transform:translate(-5px,-5px)}}@keyframes float3{0%,to{transform:translate(0,0)}50%{transform:translate(0,-10px)}}.triangle-float1{animation:float1 5s infinite}.triangle-float2{animation:float2 4s infinite}.triangle-float3{animation:float3 6s infinite}</style><mask id="SvgjsMask1008"><path fill="#fff" d="M0 0h2000v1500H0z"/></mask></defs></svg>