<svg xmlns="http://www.w3.org/2000/svg" width="1440" height="250" preserveAspectRatio="none"><g mask="url(&quot;#a&quot;)" fill="none"><path fill="rgba(191, 219, 254, 1)" d="M0 0h1440v250H0z"/><path d="M34 250 284 0h247.5l-250 250z" fill="url(&quot;#b&quot;)"/><path d="m269.6 250 250-250h312l-250 250z" fill="url(&quot;#b&quot;)"/><path d="m484.2 250 250-250h138l-250 250zM726.8 250l250-250h166.5l-250 250z" fill="url(&quot;#b&quot;)"/><path d="M1404 250 1154 0H929l250 250zM1176.4 250 926.4 0h-82.5l250 250zM937.8 250 687.8 0h-42l250 250zM711.2 250 461.2 0H348.7l250 250z" fill="url(&quot;#c&quot;)"/><path d="M1262.653 250 1440 72.653V250z" fill="url(&quot;#b&quot;)"/><path d="M0 250h177.347L0 72.653z" fill="url(&quot;#c&quot;)"/></g><defs><linearGradient x1="0%" y1="100%" x2="100%" y2="0%" id="b"><stop stop-color="rgba(15, 70, 185, 0.2)" offset="0"/><stop stop-opacity="0" stop-color="rgba(15, 70, 185, 0.2)" offset=".66"/></linearGradient><linearGradient x1="100%" y1="100%" x2="0%" y2="0%" id="c"><stop stop-color="rgba(15, 70, 185, 0.2)" offset="0"/><stop stop-opacity="0" stop-color="rgba(15, 70, 185, 0.2)" offset=".66"/></linearGradient><mask id="a"><path fill="#fff" d="M0 0h1440v250H0z"/></mask></defs></svg>